<svg width="213" height="48" viewBox="0 0 213 48" fill="none" xmlns="http://www.w3.org/2000/svg">
<path d="M0 3.6V44.4C0 46.3884 1.61156 48 3.6 48H24C37.2547 48 48 37.2547 48 24C48 10.7453 37.2547 0 24 0H3.6C1.61156 0 0 1.612 0 3.6Z" fill="url(#paint0_linear_156_3833)"/>
<path d="M14.3998 39.5999C12.4114 39.5999 10.7998 37.9879 10.7998 35.9999V11.9999C10.7998 10.0115 12.4118 8.3999 14.3998 8.3999C16.3878 8.3999 17.9998 10.0115 17.9998 11.9999V35.9999C17.9998 37.9879 16.3878 39.5999 14.3998 39.5999Z" fill="url(#paint1_linear_156_3833)"/>
<path d="M33.5964 27.6005C32.9448 27.6005 32.2853 27.4236 31.6919 27.0529L12.4919 15.0529C10.8057 13.9991 10.2933 11.7782 11.347 10.092C12.4008 8.4058 14.6217 7.89336 16.3079 8.94714L35.5079 20.9471C37.1941 22.0009 37.7066 24.2218 36.6528 25.908C35.9697 27.0005 34.7968 27.6005 33.5968 27.6005H33.5964Z" fill="url(#paint2_linear_156_3833)"/>
<path d="M14.4035 39.6005C13.2035 39.6005 12.0302 39.0009 11.3475 37.908C10.2937 36.2222 10.8062 34.0009 12.4924 32.9471L31.6924 20.9471C33.3782 19.8934 35.5995 20.4058 36.6533 22.092C37.7071 23.7782 37.1946 25.9991 35.5084 27.0529L16.3084 39.0529C15.7151 39.4236 15.0555 39.6005 14.404 39.6005H14.4035Z" fill="url(#paint3_linear_156_3833)"/>
<path d="M183.188 18.404C185.572 18.404 187.726 19.2963 189.417 20.9844C191.108 22.6724 192.002 24.8231 192.002 27.2041C192.002 29.5849 191.108 31.7356 189.417 33.4237C187.727 35.1117 185.573 36.004 183.188 36.004C181.752 36.004 180.4 35.6799 179.182 35.0538V40.004C179.182 41.3295 178.105 42.404 176.778 42.404C175.45 42.404 174.374 41.3295 174.374 40.004V20.804C174.374 19.4785 175.45 18.404 176.778 18.404C177.644 18.404 178.403 18.8615 178.826 19.5477C180.134 18.7948 181.611 18.404 183.188 18.404ZM204.02 18.404C206.405 18.404 208.559 19.2963 210.25 20.9845C211.94 22.6724 212.834 24.8231 212.834 27.2041C212.834 29.585 211.94 31.7357 210.25 33.4238C208.559 35.1117 206.405 36.004 204.02 36.004C202.584 36.004 201.232 35.6799 200.014 35.0539V40.004C200.014 41.3295 198.938 42.404 197.61 42.404C196.283 42.404 195.207 41.3295 195.207 40.004V20.804C195.207 19.4785 196.283 18.404 197.61 18.404C198.477 18.404 199.235 18.8615 199.658 19.5477C200.967 18.7948 202.443 18.404 204.02 18.404ZM124.914 19.8039C125.467 18.5991 126.894 18.07 128.101 18.6223C129.307 19.1744 129.837 20.599 129.284 21.8039L120.471 41.0029C120.067 41.8838 119.195 42.4034 118.284 42.4034C117.949 42.4034 117.609 42.3331 117.285 42.1847C116.078 41.6324 115.548 40.2079 116.101 39.003L118.304 34.2048L112.13 21.8772C111.536 20.6917 112.018 19.2502 113.205 18.6574C114.392 18.0648 115.836 18.5453 116.43 19.7306L120.874 28.6052L124.914 19.8039ZM107.069 18.404C108.396 18.404 109.473 19.4785 109.473 20.804V33.604C109.473 34.9295 108.396 36.004 107.069 36.004C106.203 36.004 105.444 35.5465 105.021 34.8605C103.713 35.6133 102.236 36.004 100.659 36.004C98.274 36.004 96.1199 35.1117 94.4293 33.4236C92.7387 31.7356 91.8451 29.5849 91.8451 27.2041C91.8451 24.8231 92.7387 22.6725 94.4295 20.9844C96.1202 19.2963 98.2742 18.404 100.659 18.404C102.236 18.404 103.712 18.7948 105.021 19.5477C105.444 18.8615 106.203 18.404 107.069 18.404ZM167.964 18.404C169.292 18.404 170.368 19.4785 170.368 20.804V33.604C170.368 34.9295 169.292 36.004 167.964 36.004C167.098 36.004 166.339 35.5465 165.916 34.8605C164.608 35.6133 163.131 36.004 161.554 36.004C159.169 36.004 157.015 35.1117 155.324 33.4236C153.634 31.7356 152.74 29.5849 152.74 27.2041C152.74 24.8231 153.634 22.6725 155.325 20.9844C157.015 19.2963 159.169 18.404 161.554 18.404C163.131 18.404 164.608 18.7948 165.916 19.5477C166.339 18.8615 167.098 18.404 167.964 18.404ZM86.2363 12.004C87.5639 12.004 88.6401 13.0785 88.6401 14.404V33.604C88.6401 34.9295 87.5639 36.004 86.2363 36.004C84.9087 36.004 83.8325 34.9295 83.8325 33.604V14.404C83.8325 13.0785 84.9087 12.004 86.2363 12.004ZM138.383 14.2645C138.764 12.9947 140.104 12.2739 141.376 12.6539C143.653 13.3349 145.721 14.8234 147.2 16.8454C148.728 18.9352 149.535 21.4145 149.535 24.015C149.535 27.641 148.326 30.7083 146.037 32.8853C143.924 34.8965 140.975 36.004 137.735 36.004H134.311C132.984 36.004 131.908 34.9296 131.908 33.604V20.7973C131.908 19.4718 132.984 18.3973 134.311 18.3973C135.639 18.3973 136.715 19.4718 136.715 20.7973V31.204H137.735C139.764 31.204 141.488 30.5838 142.721 29.4104C144.034 28.1613 144.728 26.2957 144.728 24.015C144.728 20.9161 142.738 18.0719 139.996 17.2522C138.725 16.8719 138.003 15.5342 138.383 14.2645ZM71.8139 12C74.1984 12 76.3524 12.8923 78.0431 14.5804C79.7339 16.2684 80.6275 18.4191 80.6275 20.8001C80.6275 23.1809 79.7339 25.3316 78.0431 27.0196C76.3527 28.7076 74.1986 29.6 71.8139 29.6H67.8075V33.6C67.8075 34.9255 66.7313 36 65.4038 36C64.0762 36 63 34.9255 63 33.6V14.4C63 13.0745 64.0762 12 65.4038 12H71.8139ZM183.188 23.204C182.075 23.204 181.149 23.5882 180.358 24.3785C179.566 25.1687 179.182 26.093 179.182 27.2041C179.182 28.3151 179.566 29.2392 180.358 30.0295C181.149 30.8199 182.075 31.204 183.188 31.204C184.301 31.204 185.226 30.8199 186.018 30.0296C186.809 29.2392 187.194 28.3151 187.194 27.2041C187.194 26.093 186.809 25.1687 186.018 24.3785C185.226 23.5882 184.301 23.204 183.188 23.204ZM204.02 23.204C202.908 23.204 201.982 23.5881 201.191 24.3784C200.399 25.1687 200.014 26.093 200.014 27.2041C200.014 28.315 200.399 29.2392 201.19 30.0294C201.982 30.8199 202.908 31.204 204.02 31.204C205.133 31.204 206.059 30.8199 206.85 30.0297C207.642 29.2392 208.027 28.315 208.027 27.2041C208.027 26.093 207.642 25.1687 206.85 24.3786C206.059 23.5881 205.133 23.204 204.02 23.204ZM100.659 23.204C99.5461 23.204 98.6204 23.5882 97.8288 24.3785C97.0374 25.1688 96.6526 26.093 96.6526 27.2041C96.6526 28.315 97.0374 29.2392 97.8288 30.0295C98.6204 30.8199 99.5459 31.204 100.659 31.204C101.772 31.204 102.697 30.8199 103.489 30.0296C104.28 29.2392 104.665 28.315 104.665 27.2041C104.665 26.093 104.28 25.1688 103.489 24.3785C102.697 23.5882 101.772 23.204 100.659 23.204ZM161.554 23.204C160.441 23.204 159.516 23.5882 158.724 24.3785C157.933 25.1688 157.548 26.093 157.548 27.2041C157.548 28.315 157.933 29.2392 158.724 30.0295C159.516 30.8199 160.441 31.204 161.554 31.204C162.667 31.204 163.592 30.8199 164.384 30.0296C165.175 29.2392 165.56 28.315 165.56 27.2041C165.56 26.093 165.175 25.1688 164.384 24.3785C163.592 23.5882 162.667 23.204 161.554 23.204ZM71.8139 16.8H67.8075V24.8H71.8139C72.9266 24.8 73.8522 24.4159 74.6436 23.6256C75.4353 22.8352 75.82 21.911 75.82 20.8001C75.82 19.689 75.4353 18.7647 74.6438 17.9745C73.8522 17.1842 72.9265 16.8 71.8139 16.8ZM134.311 12.004C135.639 12.004 136.715 13.0785 136.715 14.404C136.715 15.7295 135.639 16.804 134.311 16.804C132.984 16.804 131.908 15.7295 131.908 14.404C131.908 13.0785 132.984 12.004 134.311 12.004Z" fill="#04D6B4"/>
<defs>
<linearGradient id="paint0_linear_156_3833" x1="2.70711" y1="7.32311" x2="35.0049" y2="42.0018" gradientUnits="userSpaceOnUse">
<stop stop-color="#07E595"/>
<stop offset="0.25" stop-color="#05E09F"/>
<stop offset="0.68" stop-color="#02D2BA"/>
<stop offset="1" stop-color="#00C7D3"/>
</linearGradient>
<linearGradient id="paint1_linear_156_3833" x1="14.4789" y1="12.1332" x2="14.3234" y2="35.4946" gradientUnits="userSpaceOnUse">
<stop stop-color="white" stop-opacity="0.5"/>
<stop offset="0.400047" stop-color="white"/>
<stop offset="1" stop-color="white"/>
</linearGradient>
<linearGradient id="paint2_linear_156_3833" x1="33.4186" y1="23.692" x2="14.4346" y2="12.2196" gradientUnits="userSpaceOnUse">
<stop stop-color="white" stop-opacity="0.5"/>
<stop offset="0.352581" stop-color="white"/>
<stop offset="1" stop-color="white"/>
</linearGradient>
<linearGradient id="paint3_linear_156_3833" x1="14.9991" y1="35.7347" x2="32.7529" y2="24.4231" gradientUnits="userSpaceOnUse">
<stop stop-color="white" stop-opacity="0.5"/>
<stop offset="0.401717" stop-color="white"/>
<stop offset="1" stop-color="white"/>
</linearGradient>
</defs>
</svg>
