<svg width="142" height="33" viewBox="0 0 142 33" fill="none" xmlns="http://www.w3.org/2000/svg">
<path fill-rule="evenodd" clip-rule="evenodd" d="M12.7103 25.0421L23.7091 18.1786C24.8347 17.4759 25.177 15.9954 24.4735 14.8714C23.7697 13.7474 22.2865 13.4057 21.1611 14.1082L12.839 19.3014V24.1434C12.839 24.4553 12.7934 24.7566 12.7103 25.0421ZM9.61514 26.5433C10.9426 26.5433 12.0188 25.4689 12.0188 24.1434V13.4398L7.90521 10.873C7.64089 10.7079 7.4093 10.5101 7.21121 10.2886V24.1434C7.21121 25.4689 8.28756 26.5433 9.61514 26.5433ZM10.889 6.10801C9.76323 5.40572 8.28027 5.74735 7.57659 6.87136C6.87306 7.99537 7.21537 9.47616 8.34099 10.1786L17.1259 15.6606L20.7263 13.4137C21.0837 13.1907 21.4787 13.0427 21.889 12.9724L10.889 6.10801ZM2.40379 0.143372H16.025C24.8755 0.143372 32.0501 7.30676 32.0501 16.1434C32.0501 24.98 24.8755 32.1434 16.025 32.1434H2.40379C1.0762 32.1434 0 31.0688 0 29.7433V2.54325C0 1.21775 1.0762 0.143372 2.40379 0.143372ZM126.278 14.133C125.151 13.0076 123.715 12.4127 122.125 12.4127C121.074 12.4127 120.089 12.6732 119.217 13.1752C118.935 12.7177 118.429 12.4127 117.852 12.4127C116.967 12.4127 116.249 13.1291 116.249 14.0127V26.8127C116.249 27.6964 116.967 28.4127 117.852 28.4127C118.737 28.4127 119.454 27.6964 119.454 26.8127V23.5126C120.266 23.93 121.168 24.1461 122.125 24.1461C123.715 24.1461 125.151 23.5512 126.278 22.4258C127.405 21.3004 128.001 19.8667 128.001 18.2795C128.001 16.6921 127.405 15.2583 126.278 14.133ZM140.167 14.133C139.039 13.0076 137.603 12.4127 136.014 12.4127C134.962 12.4127 133.978 12.6732 133.106 13.1752C132.824 12.7177 132.318 12.4127 131.74 12.4127C130.855 12.4127 130.138 13.129 130.138 14.0127V26.8127C130.138 27.6964 130.855 28.4127 131.74 28.4127C132.625 28.4127 133.343 27.6964 133.343 26.8127V23.5126C134.155 23.93 135.056 24.1461 136.014 24.1461C137.604 24.1461 139.04 23.5512 140.166 22.4259C141.294 21.3005 141.889 19.8667 141.889 18.2794C141.889 16.6921 141.294 15.2583 140.167 14.133ZM85.4004 12.5582C84.596 12.19 83.6448 12.5427 83.2761 13.346L80.5826 19.2135L77.6198 13.2971C77.2241 12.5069 76.2616 12.1866 75.4701 12.5816C74.6785 12.9768 74.3576 13.9378 74.7534 14.7282L78.869 22.9466L77.4006 26.1454C77.0319 26.9486 77.3852 27.8983 78.1897 28.2665C78.406 28.3654 78.633 28.4123 78.8563 28.4123C79.4636 28.4123 80.0444 28.0659 80.314 27.4786L86.1895 14.6793C86.5582 13.876 86.2049 12.9263 85.4004 12.5582ZM72.9817 14.0127C72.9817 13.129 72.2643 12.4127 71.3792 12.4127C70.8018 12.4127 70.2959 12.7177 70.0138 13.1752C69.1417 12.6732 68.1574 12.4127 67.1058 12.4127C65.5162 12.4127 64.0801 13.0076 62.953 14.133C61.8258 15.2584 61.23 16.6921 61.23 18.2794C61.23 19.8666 61.8258 21.3004 62.9529 22.4258C64.0799 23.5512 65.516 24.1461 67.1058 24.1461C68.1574 24.1461 69.1417 23.8856 70.0138 23.3837C70.2959 23.841 70.8018 24.1461 71.3792 24.1461C72.2643 24.1461 72.9817 23.4297 72.9817 22.5461V14.0127ZM113.579 14.0127C113.579 13.129 112.861 12.4127 111.976 12.4127C111.399 12.4127 110.893 12.7177 110.611 13.1752C109.738 12.6732 108.754 12.4127 107.703 12.4127C106.113 12.4127 104.677 13.0076 103.55 14.133C102.423 15.2584 101.827 16.6921 101.827 18.2794C101.827 19.8666 102.423 21.3004 103.55 22.4258C104.677 23.5512 106.113 24.1461 107.703 24.1461C108.754 24.1461 109.739 23.8856 110.611 23.3837C110.893 23.841 111.399 24.1461 111.976 24.1461C112.861 24.1461 113.579 23.4297 113.579 22.5461V14.0127ZM59.0934 9.74606C59.0934 8.86238 58.3759 8.14606 57.4909 8.14606C56.6058 8.14606 55.8884 8.86238 55.8884 9.74606V22.5461C55.8884 23.4297 56.6058 24.1461 57.4909 24.1461C58.3759 24.1461 59.0934 23.4297 59.0934 22.5461V9.74606ZM94.2505 8.57933C93.4027 8.326 92.5095 8.80653 92.2556 9.65305C92.0017 10.4995 92.4832 11.3913 93.331 11.6448C95.1586 12.1913 96.4851 14.0874 96.4851 16.1534C96.4851 17.6738 96.0226 18.9176 95.1473 19.7503C94.3251 20.5326 93.1757 20.946 91.8233 20.946H91.1435V14.0082C91.1435 13.1246 90.426 12.4082 89.541 12.4082C88.6559 12.4082 87.9385 13.1246 87.9385 14.0082V22.546C87.9385 23.4298 88.6559 24.146 89.541 24.146H91.8233C93.9834 24.146 95.9491 23.4077 97.3583 22.0669C98.8838 20.6155 99.6901 18.5707 99.6901 16.1534C99.6901 14.4197 99.1517 12.7668 98.133 11.3736C97.1475 10.0257 95.7686 9.03332 94.2505 8.57933ZM52.0288 9.86361C50.9016 8.73822 49.4656 8.14337 47.8759 8.14337H43.6025C42.7174 8.14337 42 8.8597 42 9.74337V22.5434C42 23.427 42.7174 24.1434 43.6025 24.1434C44.4875 24.1434 45.205 23.427 45.205 22.5434V19.8767H47.8759C49.4657 19.8767 50.9018 19.2818 52.0288 18.1565C53.1559 17.0311 53.7517 15.5973 53.7517 14.0101C53.7517 12.4228 53.1559 10.9889 52.0288 9.86361ZM120.239 16.3957C120.766 15.8688 121.383 15.6127 122.125 15.6127C122.867 15.6127 123.484 15.8688 124.012 16.3957C124.54 16.9225 124.796 17.5387 124.796 18.2795C124.796 19.0201 124.54 19.6362 124.012 20.1631C123.484 20.69 122.867 20.9461 122.125 20.9461C121.383 20.9461 120.766 20.69 120.239 20.1631C119.711 19.6362 119.454 19.0201 119.454 18.2795C119.454 17.5387 119.711 16.9225 120.239 16.3957ZM134.127 16.3957C134.655 15.8688 135.272 15.6127 136.014 15.6127C136.755 15.6127 137.372 15.8688 137.9 16.3958C138.428 16.9225 138.684 17.5387 138.684 18.2794C138.684 19.0201 138.428 19.6362 137.9 20.1632C137.373 20.69 136.756 20.9461 136.014 20.9461C135.272 20.9461 134.655 20.69 134.127 20.163C133.599 19.6362 133.343 19.0201 133.343 18.2794C133.343 17.5387 133.599 16.9225 134.127 16.3957ZM65.2192 16.3957C65.7469 15.8688 66.3641 15.6127 67.1058 15.6127C67.8477 15.6127 68.4648 15.8688 68.9926 16.3957C69.5202 16.9226 69.7767 17.5387 69.7767 18.2794C69.7767 19.0201 69.5202 19.6362 68.9925 20.1631C68.4649 20.69 67.8477 20.9461 67.1058 20.9461C66.3639 20.9461 65.7469 20.69 65.2192 20.1631C64.6916 19.6362 64.4351 19.0201 64.4351 18.2794C64.4351 17.5387 64.6916 16.9226 65.2192 16.3957ZM105.816 16.3957C106.344 15.8688 106.961 15.6127 107.703 15.6127C108.445 15.6127 109.062 15.8688 109.589 16.3957C110.117 16.9226 110.374 17.5387 110.374 18.2794C110.374 19.0201 110.117 19.6362 109.589 20.1631C109.062 20.69 108.445 20.9461 107.703 20.9461C106.961 20.9461 106.344 20.69 105.816 20.1631C105.288 19.6362 105.032 19.0201 105.032 18.2794C105.032 17.5387 105.288 16.9226 105.816 16.3957ZM45.205 11.3434H47.8759C48.6177 11.3434 49.2348 11.5995 49.7625 12.1264C50.2902 12.6532 50.5467 13.2694 50.5467 14.0101C50.5467 14.7507 50.2902 15.3668 49.7624 15.8938C49.2348 16.4206 48.6177 16.6767 47.8759 16.6767H45.205V11.3434ZM91.1435 9.74606C91.1435 8.86238 90.426 8.14606 89.5409 8.14606C88.6559 8.14606 87.9384 8.86238 87.9384 9.74606C87.9384 10.6297 88.6559 11.3461 89.5409 11.3461C90.426 11.3461 91.1435 10.6297 91.1435 9.74606Z" fill="#AAACB6"/>
</svg>
